<?xml version="1.0" encoding="UTF-8" standalone="no"?>
<!-- Created with Inkscape (http://www.inkscape.org/) -->

<svg
   xmlns:dc="http://purl.org/dc/elements/1.1/"
   xmlns:cc="http://creativecommons.org/ns#"
   xmlns:rdf="http://www.w3.org/1999/02/22-rdf-syntax-ns#"
   xmlns:svg="http://www.w3.org/2000/svg"
   xmlns="http://www.w3.org/2000/svg"
   xmlns:sodipodi="http://sodipodi.sourceforge.net/DTD/sodipodi-0.dtd"
   xmlns:inkscape="http://www.inkscape.org/namespaces/inkscape"
   width="100mm"
   height="100mm"
   viewBox="0 0 100 100"
   version="1.1"
   id="svg8"
   inkscape:version="0.92.1 r15371"
   sodipodi:docname="Fan2.svg"
   inkscape:export-filename="D:\Documents\Unity\Power Puzzle game\Power Cube Puzzle\Assets\Graphics\Tile\Fan.png"
   inkscape:export-xdpi="65.024002"
   inkscape:export-ydpi="65.024002">
  <defs
     id="defs2" />
  <sodipodi:namedview
     id="base"
     pagecolor="#ffffff"
     bordercolor="#666666"
     borderopacity="1.0"
     inkscape:pageopacity="0.0"
     inkscape:pageshadow="2"
     inkscape:zoom="1.4"
     inkscape:cx="184.42504"
     inkscape:cy="138.66769"
     inkscape:document-units="mm"
     inkscape:current-layer="layer1"
     showgrid="false"
     showguides="false"
     inkscape:guide-bbox="true"
     inkscape:window-width="958"
     inkscape:window-height="1008"
     inkscape:window-x="-7"
     inkscape:window-y="0"
     inkscape:window-maximized="0">
    <sodipodi:guide
       position="50.270833,50.270833"
       orientation="0,1"
       id="guide16"
       inkscape:locked="false" />
    <inkscape:grid
       type="xygrid"
       id="grid18" />
  </sodipodi:namedview>
  <metadata
     id="metadata5">
    <rdf:RDF>
      <cc:Work
         rdf:about="">
        <dc:format>image/svg+xml</dc:format>
        <dc:type
           rdf:resource="http://purl.org/dc/dcmitype/StillImage" />
        <dc:title></dc:title>
      </cc:Work>
    </rdf:RDF>
  </metadata>
  <g
     inkscape:label="Layer 1"
     inkscape:groupmode="layer"
     id="layer1"
     transform="translate(0,-197)">
    <rect
       style="fill:#808080;stroke-width:0.14111111"
       id="rect10"
       width="80"
       height="80"
       x="10"
       y="207" />
    <circle
       style="fill:#b3b3b3;stroke-width:0.1895356"
       id="path12"
       cx="50"
       cy="247"
       r="37.5" />
    <circle
       style="fill:#4d4d4d;stroke-width:0.50683403"
       id="path14"
       cx="50"
       cy="247"
       r="15" />
    <path
       style="opacity:1;fill:#4d4d4d;stroke:#4d4d4d;stroke-width:0.26499999;stroke-linecap:butt;stroke-linejoin:miter;stroke-miterlimit:4;stroke-dasharray:none;stroke-opacity:1"
       d="m 62.138508,251.85192 c 3.133559,2.59838 5.633731,3.22949 10.218605,5.37275 5.674443,2.2429 9.961783,3.58806 11.376693,0.79806 2.911737,-4.18389 2.586431,-26.80877 -1.316464,-24.49199 -6.127401,1.62303 -9.937272,14.23901 -19.06475,13.95749 z"
       id="path24"
       inkscape:connector-curvature="0"
       sodipodi:nodetypes="cccccc" />
    <path
       style="opacity:1;fill:#4d4d4d;stroke:#4d4d4d;stroke-width:0.26499999;stroke-linecap:butt;stroke-linejoin:miter;stroke-miterlimit:4;stroke-dasharray:none;stroke-opacity:1"
       d="m 41.920273,237.43392 c -0.949833,-3.95836 -2.572326,-5.96253 -4.956526,-10.42686 -3.196445,-5.19736 -5.821072,-8.84456 -8.62629,-7.46009 -4.838913,1.60253 -18.144333,19.90436 -13.631702,20.39038 5.876943,2.37504 16.490471,-5.4372 23.626436,0.26089 z"
       id="path24-4-4"
       inkscape:connector-curvature="0"
       sodipodi:nodetypes="cccccc" />
    <path
       style="opacity:1;fill:#4d4d4d;stroke:#4d4d4d;stroke-width:0.26499999;stroke-linecap:butt;stroke-linejoin:miter;stroke-miterlimit:4;stroke-dasharray:none;stroke-opacity:1"
       d="m 37.453367,249.29255 c -4.025407,-0.60572 -6.492104,0.14567 -11.524971,0.67944 -6.017215,1.0114 -10.382985,2.07479 -10.152941,5.19457 -0.331352,5.08659 11.636519,24.28974 13.781152,20.28968 4.407674,-4.55541 1.151492,-17.32551 9.111812,-21.80027 z"
       id="path24-4-4-2"
       inkscape:connector-curvature="0"
       sodipodi:nodetypes="cccccc" />
    <path
       style="opacity:1;fill:#4d4d4d;stroke:#4d4d4d;stroke-width:0.26499999;stroke-linecap:butt;stroke-linejoin:miter;stroke-miterlimit:4;stroke-dasharray:none;stroke-opacity:1"
       d="m 48.362854,260.9415 c -1.260714,3.87058 -0.926037,6.42737 -1.228836,11.4794 0.0061,6.10162 0.335609,10.58293 3.450651,10.87008 4.962468,1.16496 25.87511,-7.47521 22.2831,-10.24962 -3.766885,-5.09803 -16.898967,-3.9905 -20.00093,-12.57934 z"
       id="path24-4-4-2-0"
       inkscape:connector-curvature="0"
       sodipodi:nodetypes="cccccc" />
    <path
       style="opacity:1;fill:#4d4d4d;stroke:#4d4d4d;stroke-width:0.26499999;stroke-linecap:butt;stroke-linejoin:miter;stroke-miterlimit:4;stroke-dasharray:none;stroke-opacity:1"
       d="m 57.19392,236.89521 c 3.526264,-2.03376 4.987795,-4.15817 8.592306,-7.71093 4.077006,-4.5396 6.829763,-8.09108 4.706336,-10.38828 -2.909464,-4.18548 -24.234052,-11.75205 -23.41989,-7.28694 -0.610187,6.30927 9.892103,14.27042 6.452576,22.72973 z"
       id="path24-2"
       inkscape:connector-curvature="0"
       sodipodi:nodetypes="cccccc" />
  </g>
</svg>
