<?xml version="1.0" encoding="UTF-8" standalone="no"?>
<!-- Created with Inkscape (http://www.inkscape.org/) -->

<svg
   xmlns:dc="http://purl.org/dc/elements/1.1/"
   xmlns:cc="http://creativecommons.org/ns#"
   xmlns:rdf="http://www.w3.org/1999/02/22-rdf-syntax-ns#"
   xmlns:svg="http://www.w3.org/2000/svg"
   xmlns="http://www.w3.org/2000/svg"
   xmlns:sodipodi="http://sodipodi.sourceforge.net/DTD/sodipodi-0.dtd"
   xmlns:inkscape="http://www.inkscape.org/namespaces/inkscape"
   width="100"
   height="100"
   viewBox="0 0 26.458333 26.458333"
   version="1.1"
   id="svg8"
   inkscape:export-filename="/Users/frey/Documents/GitHub/Power-Puzzle-game/Power Cube Puzzle/Assets/Graphics/UI/PlayButton.png"
   inkscape:export-xdpi="96"
   inkscape:export-ydpi="96"
   inkscape:version="0.92.2 5c3e80d, 2017-08-06"
   sodipodi:docname="PlayButton.svg">
  <defs
     id="defs2" />
  <sodipodi:namedview
     id="base"
     pagecolor="#ffffff"
     bordercolor="#666666"
     borderopacity="1.0"
     inkscape:pageopacity="0.0"
     inkscape:pageshadow="2"
     inkscape:zoom="5.6"
     inkscape:cx="23.794359"
     inkscape:cy="51.90424"
     inkscape:document-units="px"
     inkscape:current-layer="layer1"
     showgrid="true"
     units="px"
     showguides="true"
     inkscape:window-width="1920"
     inkscape:window-height="982"
     inkscape:window-x="0"
     inkscape:window-y="0"
     inkscape:window-maximized="1">
    <inkscape:grid
       type="xygrid"
       id="grid10" />
  </sodipodi:namedview>
  <metadata
     id="metadata5">
    <rdf:RDF>
      <cc:Work
         rdf:about="">
        <dc:format>image/svg+xml</dc:format>
        <dc:type
           rdf:resource="http://purl.org/dc/dcmitype/StillImage" />
        <dc:title></dc:title>
      </cc:Work>
    </rdf:RDF>
  </metadata>
  <g
     inkscape:label="Layer 1"
     inkscape:groupmode="layer"
     id="layer1"
     transform="translate(0,-270.54167)">
    <path
       style="fill:#ffffff;stroke-width:0.17857143"
       d="m 20.580073,49.974985 c 0,-21.3803 0.06717,-38.846487 0.149264,-38.813749 0.740454,0.29528 63.034258,38.821676 62.932322,38.921296 -0.180314,0.176217 -62.572252,38.568485 -62.858372,38.679285 -0.178152,0.06899 -0.223214,-7.761162 -0.223214,-38.786832 z"
       id="path14"
       inkscape:connector-curvature="0"
       transform="matrix(0.26458333,0,0,0.26458333,0,270.54167)" />
    <path
       style="fill:#ffffff;stroke-width:0.17857143"
       d="m 20.580073,49.989865 c 0,-21.372115 0.03866,-38.858391 0.08591,-38.858391 0.04725,0 11.196802,6.841804 24.776785,15.204009 13.579984,8.362204 27.766229,17.096486 31.52499,19.409513 5.320333,3.273973 6.783835,4.251198 6.607142,4.411787 -0.273835,0.248881 -62.403394,38.46452 -62.751101,38.597949 -0.205455,0.07884 -0.243722,-6.007663 -0.243722,-38.764867 z"
       id="path16"
       inkscape:connector-curvature="0"
       transform="matrix(0.26458333,0,0,0.26458333,0,270.54167)" />
    <path
       style="fill:#ffffff;stroke-width:0.17857143"
       d="m 20.580073,49.989865 c 0,-21.372115 0.04164,-38.858391 0.09253,-38.858391 0.05089,0 9.31205,5.67625 20.580357,12.61389 11.268307,6.937639 25.453068,15.670425 31.521691,19.406189 8.7081,5.360593 10.98532,6.836846 10.803572,7.003636 -0.126659,0.116235 -7.221361,4.511023 -15.766004,9.766194 -39.869084,24.520499 -46.7446,28.739786 -46.979894,28.830075 -0.216808,0.0832 -0.252249,-5.362809 -0.252249,-38.761593 z"
       id="path18"
       inkscape:connector-curvature="0"
       transform="matrix(0.26458333,0,0,0.26458333,0,270.54167)" />
    <path
       style="fill:#ffffff;stroke-width:0.17857143"
       d="m 20.580073,49.989865 c 0,-21.372115 0.04636,-38.858391 0.10303,-38.858391 0.07733,0 41.653029,25.558984 61.020234,37.512663 1.684,1.039386 2.05929,1.342973 1.875,1.516762 -0.288698,0.272249 -62.290179,38.41564 -62.69906,38.572542 -0.279326,0.107187 -0.299204,-2.466772 -0.299204,-38.743576 z"
       id="path20"
       inkscape:connector-curvature="0"
       transform="matrix(0.26458333,0,0,0.26458333,0,270.54167)" />
    <path
       style="fill:#ffffff;stroke-width:0.17857143"
       d="m 20.580073,49.989865 c 0,-21.372115 0.04008,-38.858391 0.08907,-38.858391 0.12031,0 5.01458,2.999864 31.696645,19.427947 C 82.656656,49.209433 83.50259,49.731637 83.678865,49.889253 83.874828,50.064469 85.727337,48.904823 57.54436,66.24913 23.845545,86.987982 21.199116,88.610707 20.869767,88.737091 20.603103,88.839419 20.580073,85.759098 20.580073,49.989865 Z"
       id="path22"
       inkscape:connector-curvature="0"
       transform="matrix(0.26458333,0,0,0.26458333,0,270.54167)" />
    <path
       style="fill:#ffffff;stroke-width:0.17857143"
       d="m 20.580073,49.989865 c 0,-21.372115 0.04761,-38.858391 0.105788,-38.858391 0.296634,0 62.918609,38.633811 62.955032,38.839286 0.03933,0.221868 1.909723,-0.942887 -30.471534,18.975614 -14.928572,9.182929 -28.227679,17.363649 -29.553572,18.179375 -1.325893,0.815729 -2.551339,1.537 -2.723214,1.602825 -0.297028,0.113758 -0.3125,-1.804173 -0.3125,-38.738709 z"
       id="path24"
       inkscape:connector-curvature="0"
       transform="matrix(0.26458333,0,0,0.26458333,0,270.54167)" />
    <path
       style="fill:#ffffff;stroke-width:0.17857143"
       d="m 20.580073,49.989865 c 0,-21.372115 0.05159,-38.858391 0.114641,-38.858391 0.293676,0 63.010359,38.682156 63.010359,38.863288 0,0.180277 0.121886,0.104582 -30.714286,19.074612 -32.414762,19.941159 -31.723241,19.517604 -32.098214,19.660115 -0.297025,0.112885 -0.3125,-1.805436 -0.3125,-38.739624 z"
       id="path26"
       inkscape:connector-curvature="0"
       transform="matrix(0.26458333,0,0,0.26458333,0,270.54167)" />
    <path
       style="fill:#ffffff;stroke-width:0.17857143"
       d="m 20.580073,49.951655 c 0,-33.260353 0.03607,-38.844551 0.250359,-38.762319 0.342681,0.131499 28.881291,17.680163 60.954998,37.48181 1.104911,0.68215 2.008929,1.274239 2.008929,1.315757 0,0.130761 -1.79873,1.245437 -31.45335,19.491709 -29.897813,18.395907 -31.428875,19.331434 -31.637394,19.331434 -0.06795,0 -0.123542,-17.486275 -0.123542,-38.858391 z"
       id="path28"
       inkscape:connector-curvature="0"
       transform="matrix(0.26458333,0,0,0.26458333,0,270.54167)" />
    <path
       style="fill:#ffffff;stroke-width:0.17857143"
       d="m 20.580073,49.989865 c 0,-21.372115 0.04976,-38.858391 0.11057,-38.858391 0.159825,0 0.164434,0.0028 24.978716,15.271656 38.221807,23.518818 38.185298,23.495948 37.916696,23.752469 -0.315443,0.301256 -3.986057,2.571916 -33.184553,20.528122 -28.143472,17.307396 -29.082429,17.881573 -29.508929,18.04488 -0.297028,0.113731 -0.3125,-1.804209 -0.3125,-38.738736 z"
       id="path30"
       inkscape:connector-curvature="0"
       transform="matrix(0.26458333,0,0,0.26458333,0,270.54167)" />
    <path
       style="fill:#ffffff;stroke-width:0.17857143"
       d="m 20.580073,49.951655 c 0,-32.2328 0.04044,-38.842873 0.23717,-38.76738 0.471154,0.180798 48.570446,29.752958 61.349655,37.71868 l 1.676109,1.044777 -0.46412,0.368657 C 83.002662,50.61523 27.675056,84.707912 22.380948,87.90311 c -0.826483,0.498814 -1.569786,0.906936 -1.651785,0.906936 -0.082,0 -0.14909,-17.486275 -0.14909,-38.858391 z"
       id="path32"
       inkscape:connector-curvature="0"
       transform="matrix(0.26458333,0,0,0.26458333,0,270.54167)" />
    <path
       style="fill:#ffffff;stroke-width:0.17857143"
       d="m 20.580073,49.97076 c 0,-21.361607 0.04911,-38.839286 0.109129,-38.839286 0.174685,0 1.858407,1.029411 28.640871,17.510742 28.759306,17.697835 34.129464,21.017864 34.354506,21.239214 0.21553,0.211994 0.694546,-0.08821 -30.005043,18.804257 -30.171251,18.567323 -32.720143,20.124359 -32.943908,20.124359 -0.08788,0 -0.155555,-16.896711 -0.155555,-38.839286 z"
       id="path34"
       inkscape:connector-curvature="0"
       transform="matrix(0.26458333,0,0,0.26458333,0,270.54167)" />
    <path
       style="fill:#010101;fill-opacity:1;stroke:#000000;stroke-width:0.13595751;stroke-linecap:round;stroke-linejoin:round;stroke-miterlimit:4;stroke-dasharray:none;stroke-opacity:1;paint-order:stroke fill markers"
       d="m 5.4469847,283.75805 c 0,-9.34251 0.00718,-10.27685 0.078737,-10.25086 0.1038967,0.0377 1.2790905,0.71865 8.2064293,4.75483 8.086543,4.71159 9.344794,5.45204 9.351972,5.50341 0.0081,0.058 -0.510418,0.36386 -8.800527,5.192 -8.3647813,4.87163 -8.7253531,5.08007 -8.7876175,5.08007 -0.031902,0 -0.048994,-3.58618 -0.048994,-10.27945 z"
       id="path36"
       inkscape:connector-curvature="0" />
  </g>
</svg>
